<svg xmlns="http://www.w3.org/2000/svg" xmlns:xlink="http://www.w3.org/1999/xlink" version="1.1" id="Capa_1" x="0px" y="0px" width="453.9949951171875px" height="453.9949951171875px" viewBox="0 0 453.995 453.995" style="enable-background:new 0 0 453.995 453.995;" xml:space="preserve" ><rect id="svgEditorBackground" x="0" y="0" width="453.9949951171875" height="453.9949951171875" style="fill:none;stroke:none;"/>
	<g>
		<path d="M330.122,61.284c1.2409999999999854,-1.4140000000000015,2.230000000000018,-2.9080000000000013,2.603999999999985,-4.564h0.1309999999999718v-0.527000000000001c0.06499999999999773,-0.45300000000000296,0.3120000000000118,-0.8770000000000024,0.3120000000000118,-1.3560000000000016h-0.3120000000000118v-8.692c4.396000000000015,-3.5050000000000026,7.197000000000003,-7.289999999999999,8.634999999999991,-11.298999999999992c3.350999999999999,-2.57200000000001,5.413000000000011,-5.486000000000008,5.413000000000011,-8.907000000000007c-0.0009999999999763531,-24.694999999999997,-99.88599999999997,-25.938999999999997,-119.90699999999998,-25.938999999999997c-20.024,0,-119.907,1.249,-119.907,25.938c0,4.324000000000002,3.191999999999993,7.895,8.364000000000004,10.904999999999998c1.25,2.5080000000000027,3.125,4.966000000000001,5.608999999999995,7.288000000000004v12.594000000000001h0.5879999999999939c0.32399999999999807,1.4329999999999998,1.0450000000000017,2.7490000000000023,2.0160000000000053,3.9949999999999974c-19.891000000000005,13.745000000000005,-40.071,30.337999999999994,-40.071,41.138000000000005v290.42c0,29.925999999999988,21.310000000000002,61.71800000000002,60.80299999999998,61.71800000000002h159.735c41.48000000000002,0,66.26300000000003,-24.09699999999998,66.26300000000003,-64.43400000000003v-282.25600000000003c0,-14.472999999999999,-24.483000000000004,-34.548,-40.27600000000001,-46.022ZM98.081,208.917c21.114000000000004,5.479000000000013,75.038,17.710999999999984,135.18899999999996,17.710999999999984c40.827999999999975,0,84.44600000000003,-5.782999999999987,122.60000000000002,-23.025000000000006v104.17100000000002c-92.83799999999997,45.90999999999997,-229.721,13.637999999999977,-257.765,6.249000000000024l-0.02400000000001512,-105.10600000000002ZM297.732,57.349v3.4380000000000024c-5.021000000000015,0.9450000000000003,-10.649999999999977,1.8569999999999993,-17.286999999999978,2.6510000000000034v-6.082999999999998h-12.965000000000032v7.364999999999995c-4.6299999999999955,0.382000000000005,-9.65100000000001,0.6689999999999969,-14.860000000000014,0.9080000000000013v-8.268h-12.974999999999994v8.709000000000003c-4.092999999999989,0.08400000000000318,-8.063999999999993,0.2289999999999992,-12.447000000000003,0.2289999999999992c-1.7150000000000034,0,-3.173000000000002,-0.08599999999999852,-4.836999999999989,-0.09999999999999432v-8.837000000000003h-12.965000000000003v8.599000000000004c-7.635999999999996,-0.24500000000000455,-14.824999999999989,-0.5969999999999942,-21.337999999999994,-1.125v-7.475000000000001h-12.965000000000003v6.189c-6.552999999999997,-0.7449999999999974,-12.274000000000001,-1.615000000000002,-17.287000000000006,-2.5180000000000007v-3.6799999999999997h-12.965000000000003v0.7419999999999973c-1.6450000000000102,-0.4690000000000012,-3.1920000000000073,-0.9050000000000011,-4.4739999999999895,-1.3770000000000024h173.63399999999996c-0.9889999999999759,0.35300000000000153,-2.091000000000008,0.6929999999999978,-3.305000000000007,1.064v-0.4299999999999997h-12.963999999999942ZM134.029,43.759v-0.13100000000000023c0.1769999999999925,0.04399999999999693,0.3830000000000098,0.08200000000000074,0.5689999999999884,0.13100000000000023h-0.5689999999999884ZM319.387,43.759c0.1490000000000009,-0.04899999999999949,0.33600000000001273,-0.07200000000000273,0.5040000000000191,-0.11699999999999733v0.11699999999999733h-0.5040000000000191ZM121.438,25.933c8.63600000000001,-5.065999999999999,44.253,-12.977,105.55999999999999,-12.977c61.28800000000001,0,96.92599999999999,7.916,105.55099999999999,12.977c-8.625,5.065999999999999,-44.26299999999998,12.96,-105.55099999999999,12.96c-61.30699999999999,0,-96.92399999999998,-7.901,-105.55999999999999,-12.96ZM137.294,69.054c26.188999999999993,9.513999999999996,76.916,10.192999999999998,89.9,10.192999999999998c12.834000000000003,0,62.697,-0.6650000000000063,89.113,-9.896c21.468999999999994,14.872,39.56200000000001,32.077,39.56200000000001,37.95v80.31600000000002c-92.86500000000001,45.94800000000001,-229.788,13.641999999999996,-257.798,6.256l-0.013999999999995794,-91.482c1.423999999999964,-4.858000000000018,19.08899999999997,-19.79300000000002,39.23699999999998,-33.33700000000002ZM304.135,439.471h-159.73499999999999c-33.95099999999999,0,-46.278999999999996,-28.216999999999985,-46.278999999999996,-47.192999999999984l-0.01099999999999568,-63.19200000000001c21.144000000000005,5.478999999999985,75.02800000000002,17.706999999999994,135.161,17.706999999999994c40.82800000000003,0,84.44599999999997,-5.786999999999978,122.59999999999997,-23.031999999999982v65.80200000000002c0.004000000000019099,41.24599999999998,-28.138999999999953,49.90799999999996,-51.73599999999999,49.90799999999996Z" style="fill:#5781D9;"/>
		<path d="M122.446,121.003c2.7049999999999983,0.8919999999999959,46.036,14.999999999999986,105.74699999999999,14.999999999999986c30.755999999999972,0,65.86199999999997,-3.742999999999995,102.00299999999999,-14.957999999999998c3.826999999999998,-1.1899999999999977,5.964999999999975,-5.2620000000000005,4.778999999999996,-9.088999999999999c-1.1859999999999786,-3.8149999999999977,-5.189000000000021,-5.986000000000004,-9.100999999999999,-4.778999999999996c-101.649,31.536,-197.88,0.36700000000000443,-198.832,0.04200000000000159c-3.7900000000000063,-1.2909999999999968,-7.912999999999997,0.8080000000000069,-9.174999999999997,4.591999999999999c-1.275999999999982,3.8090000000000117,0.7800000000000296,7.912000000000006,4.579000000000022,9.192000000000007Z" style="fill:#90B4FE;"/>
		<path d="M349.0657713227,332.0426473251c0,0,-24.800000000000068,40.799999999999955,-52.80000000000007,16.899999999999977c-11.5,-8.199999999999932,-28.699999999999932,-37.5,-38.09999999999991,-88.5l0,0c0,0,-15.100000000000051,-93.1,-61.200000000000045,-102.29999999999998c-46,-9.100000000000023,-65.79999999999998,19,-73.7,38.29999999999998l4.200000000000003,8.5c0,0,24.799999999999983,-40.79999999999998,52.79999999999998,-16.799999999999983c8.5,6.099999999999966,20.200000000000017,24,29.5,53.69999999999999l-88.49999999999999,137.20000000000002h37.8l58.39999999999998,-106.80000000000007c0.30000000000001137,1.5,0.6000000000000227,2.900000000000091,0.8000000000000114,4.400000000000091l0,0c0,0,15.199999999999989,93.09999999999991,61.20000000000002,102.19999999999993c46,9.100000000000023,65.79999999999995,-19,73.69999999999993,-38.299999999999955l-4.099999999999909,-8.5Z" transform="matrix(0.356962 0 0 0.356962 148.703 176.292)" style="fill:#62B132;"/>
	</g>
</svg>